<svg xmlns="http://www.w3.org/2000/svg" viewBox="0 0 228.07 47.86"><defs><style>.cls-1{fill:#545c72;}.cls-2{font-size:12.89px;fill:#95a1b7;font-family:ProximaNova-Extrabld, Proxima Nova;font-weight:700;letter-spacing:0.43em;}.cls-3{letter-spacing:0.5em;}.cls-4{letter-spacing:0.49em;}</style></defs><title>Asset 2</title><g id="Layer_2" data-name="Layer 2"><g id="Layer_1-2" data-name="Layer 1"><path class="cls-1" d="M52.61,16.65c0-7.21,5.46-12.07,12.45-12.07a10.85,10.85,0,0,1,10.35,6.26l-5.18,2.45A5.66,5.66,0,0,0,65.06,9.9c-3.64,0-6.33,2.94-6.33,6.75s2.69,6.75,6.33,6.75A5.66,5.66,0,0,0,70.24,20l5.18,2.45a10.92,10.92,0,0,1-10.35,6.26C58.06,28.72,52.61,23.82,52.61,16.65Z"/><path class="cls-1" d="M89.3,4.58c7.14,0,12.45,5,12.45,12.07S96.44,28.72,89.3,28.72s-12.49-5-12.49-12.07S82.16,4.58,89.3,4.58Zm0,5.32c-3.88,0-6.37,2.94-6.37,6.75s2.48,6.75,6.37,6.75,6.33-3,6.33-6.75S93.15,9.9,89.3,9.9Z"/><path class="cls-1" d="M101.61,5h6.82l5.74,16.83L119.94,5h6.82L117.95,28.3h-7.56Z"/><path class="cls-1" d="M128.48,5h17.11V10H134.5v3.88h9.84V19H134.5v4.2h11.09V28.3H128.48Z"/><path class="cls-1" d="M173.74,18.93h-9.69V28.3h-6V4h6v9.71h9.69V4h6V28.3h-6Z"/><path class="cls-1" d="M184,4l6,1.7V28.3h-6Z"/><path class="cls-1" d="M194.17,4h6V23.05h9.38V28.3H194.17Z"/><path class="cls-1" d="M212.68,4h6V23.05h9.37V28.3H212.68Z"/><text class="cls-2" transform="translate(53.88 42.92)">P<tspan class="cls-3" x="13.81" y="0">A</tspan><tspan class="cls-4" x="29.25" y="0">R</tspan><tspan class="cls-3" x="44.09" y="0">TNERS</tspan></text><path class="cls-1" d="M0,0V47.81H41.55V0ZM30.54,18.69H21V10.4H10.85V38.28H21V29.94h9.52V46.11H1.7V1.7H30.53v17Z"/></g></g></svg>